HIERARCHY
ROOT root
{
	OFFSET	0	13.1	24.9
	CHANNELS 6  Xposition Yposition Zposition Xrotation Yrotation Zrotation
	JOINT spine_1
	{
		OFFSET	0	9.99999	0
		CHANNELS 3  Xrotation Yrotation Zrotation
		JOINT spine_2
		{
			OFFSET	0	112	-10
			CHANNELS 3  Xrotation Yrotation Zrotation
			JOINT spine_3
			{
				OFFSET	0	206.5	19.3
				CHANNELS 3  Xrotation Yrotation Zrotation
				JOINT spine_4
				{
					OFFSET	0	110.4	14.6
					CHANNELS 3  Xrotation Yrotation Zrotation
					JOINT neck_1
					{
						OFFSET	0	71.8	-50.3
						CHANNELS 3  Xrotation Yrotation Zrotation
						JOINT neck_2
						{
							OFFSET	0	86.2	-25.8
							CHANNELS 3  Xrotation Yrotation Zrotation
							JOINT head_ee
							{
								OFFSET	0	179.8	-8.7
								CHANNELS 3  Xrotation Yrotation Zrotation
								End Site
								{
									OFFSET	1	0	0
								}
							}
						}
					}
					JOINT left_clavicle
					{
						OFFSET	-43.2	22.4	-70.8
						CHANNELS 3  Xrotation Yrotation Zrotation
						JOINT left_shoulder
						{
							OFFSET	-93.9	-5.79999	48.7
							CHANNELS 3  Xrotation Yrotation Zrotation
							JOINT left_elbow
							{
								OFFSET	-291.4	-30.8	15.2
								CHANNELS 3  Xrotation Yrotation Zrotation
								JOINT left_lowarm_twist
								{
									OFFSET	-110.7	-3.89999	13.6
									CHANNELS 3  Xrotation Yrotation Zrotation
									JOINT left_hand
									{
										OFFSET	-110.7	-3.89999	13.6
										CHANNELS 3  Xrotation Yrotation Zrotation
										JOINT left_ee
										{
											OFFSET	-80.8	-5.10001	12.1
											CHANNELS 3  Xrotation Yrotation Zrotation
											End Site
											{
												OFFSET	1	0	0
											}
										}
									}
								}
							}
						}
					}
					JOINT right_clavicle
					{
						OFFSET	43.2	22.4	-70.8
						CHANNELS 3  Xrotation Yrotation Zrotation
						JOINT right_shoulder
						{
							OFFSET	93.9	-5.79999	48.7
							CHANNELS 3  Xrotation Yrotation Zrotation
							JOINT right_elbow
							{
								OFFSET	291.4	-30.8	15.2
								CHANNELS 3  Xrotation Yrotation Zrotation
								JOINT right_lowarm_twist
								{
									OFFSET	110.7	-3.89999	13.6
									CHANNELS 3  Xrotation Yrotation Zrotation
									JOINT right_hand
									{
										OFFSET	110.7	-3.89999	13.6
										CHANNELS 3  Xrotation Yrotation Zrotation
										JOINT right_ee
										{
											OFFSET	80.8	-5.10001	12.1
											CHANNELS 3  Xrotation Yrotation Zrotation
											End Site
											{
												OFFSET	1	0	0
											}
										}
									}
								}
							}
						}
					}
				}
			}
		}
	}
	JOINT left_hip
	{
		OFFSET	-82.8	-127.5	0.300001
		CHANNELS 3  Xrotation Yrotation Zrotation
		JOINT left_knee
		{
			OFFSET	-28.2	-396.7	2.2
			CHANNELS 3  Xrotation Yrotation Zrotation
			JOINT left_ankle
			{
				OFFSET	-11.7	-411.3	35.4
				CHANNELS 3  Xrotation Yrotation Zrotation
				JOINT left_toes
				{
					OFFSET	0	-60	-88.6
					CHANNELS 3  Xrotation Yrotation Zrotation
					JOINT left_foot_ee
					{
						OFFSET	-22.5	-16.5	-42.2
						CHANNELS 3  Xrotation Yrotation Zrotation
						End Site
						{
							OFFSET	1	0	0
						}
					}
				}
			}
		}
	}
	JOINT right_hip
	{
		OFFSET	82.8	-127.5	0.300001
		CHANNELS 3  Xrotation Yrotation Zrotation
		JOINT right_knee
		{
			OFFSET	28.2	-396.7	2.2
			CHANNELS 3  Xrotation Yrotation Zrotation
			JOINT right_ankle
			{
				OFFSET	11.7	-411.3	35.4
				CHANNELS 3  Xrotation Yrotation Zrotation
				JOINT right_toes
				{
					OFFSET	0	-60	-88.6
					CHANNELS 3  Xrotation Yrotation Zrotation
					JOINT right_foot_ee
					{
						OFFSET	22.5	-16.5	-42.2
						CHANNELS 3  Xrotation Yrotation Zrotation
						End Site
						{
							OFFSET	1	0	0
						}
					}
				}
			}
		}
	}
}
MOTION
Frames: 10
Frame Time: 0.02
1372.05 701.618 -1475.22 6.8977656614 41.0916979207 1.30150899204 -3.06441 -0.584037 -2.95084 -3.05965 -0.395169 -2.98199 -3.03223 0.398849 -2.9815 -3.04463 -0.0768073 -3.00705 -2.25937 -1.23348 4.97512 -2.15575 -6.159 5.05875 -0.0 0.0 -0.0 4.14041 1.28009 8.04741 1.63486 -25.0466 61.6358 3.2027 -57.7636 1.76698 21.5455 0.249476 -2.72476 -0.358805 0.243765 -2.29229 -0.0 0.0 -0.0 2.09146 2.15891 -3.84802 -17.5947 4.84694 -67.9165 0.673803 18.4582 -0.109485 -46.0651 3.61804 -4.46145 1.80381 -11.9955 -16.6158 0.0 0.0 0.0 -27.385 1.7884 -7.66002 -5.84394 0.19612 0.875043 9.33864 7.37198 -1.33047 7.30951 -0.0 -0.0 -0.0 0.0 -0.0 14.3873 31.6206 -6.42188 3.21155 0.145513 0.471231 11.9117 -23.9849 1.75127 -39.1469 0.0 0.0 0.0 0.0 0.0 
1372.05 701.618 -1475.22 6.86981628465 40.8249848208 1.34414647299 -3.06441 -0.584037 -2.95084 -3.05965 -0.395169 -2.98199 -3.03223 0.398849 -2.9815 -3.04463 -0.0768073 -3.00705 -2.25937 -1.23348 4.97512 -2.15575 -6.159 5.05875 -0.0 0.0 -0.0 4.14041 1.28009 8.04741 1.63486 -25.0466 61.6358 3.2027 -57.7636 1.76698 21.5455 0.249476 -2.72476 -0.358805 0.243765 -2.29229 -0.0 0.0 -0.0 2.09146 2.15891 -3.84802 -17.5947 4.84694 -67.9165 0.673803 18.4582 -0.109485 -46.0651 3.61804 -4.46145 1.80381 -11.9955 -16.6158 0.0 0.0 0.0 -27.385 1.7884 -7.66002 -5.84394 0.19612 0.875043 9.33864 7.37198 -1.33047 7.30951 -0.0 -0.0 -0.0 0.0 -0.0 14.3873 31.6206 -6.42188 3.21155 0.145513 0.471231 11.9117 -23.9849 1.75127 -39.1469 0.0 0.0 0.0 0.0 0.0 
1372.05 701.618 -1475.22 6.79286084949 40.0714889807 1.46276300316 -3.06441 -0.584037 -2.95084 -3.05965 -0.395169 -2.98199 -3.03223 0.398849 -2.9815 -3.04463 -0.0768073 -3.00705 -2.25937 -1.23348 4.97512 -2.15575 -6.159 5.05875 -0.0 0.0 -0.0 4.14041 1.28009 8.04741 1.63486 -25.0466 61.6358 3.2027 -57.7636 1.76698 21.5455 0.249476 -2.72476 -0.358805 0.243765 -2.29229 -0.0 0.0 -0.0 2.09146 2.15891 -3.84802 -17.5947 4.84694 -67.9165 0.673803 18.4582 -0.109485 -46.0651 3.61804 -4.46145 1.80381 -11.9955 -16.6158 0.0 0.0 0.0 -27.385 1.7884 -7.66002 -5.84394 0.19612 0.875043 9.33864 7.37198 -1.33047 7.30951 -0.0 -0.0 -0.0 0.0 -0.0 14.3873 31.6206 -6.42188 3.21155 0.145513 0.471231 11.9117 -23.9849 1.75127 -39.1469 0.0 0.0 0.0 0.0 0.0 
1372.05 701.618 -1475.22 6.71601798477 39.2894618189 1.5831081644 -3.06441 -0.584037 -2.95084 -3.05965 -0.395169 -2.98199 -3.03223 0.398849 -2.9815 -3.04463 -0.0768073 -3.00705 -2.25937 -1.23348 4.97512 -2.15575 -6.159 5.05875 -0.0 0.0 -0.0 4.14041 1.28009 8.04741 1.63486 -25.0466 61.6358 3.2027 -57.7636 1.76698 21.5455 0.249476 -2.72476 -0.358805 0.243765 -2.29229 -0.0 0.0 -0.0 2.09146 2.15891 -3.84802 -17.5947 4.84694 -67.9165 0.673803 18.4582 -0.109485 -46.0651 3.61804 -4.46145 1.80381 -11.9955 -16.6158 0.0 0.0 0.0 -27.385 1.7884 -7.66002 -5.84394 0.19612 0.875043 9.33864 7.37198 -1.33047 7.30951 -0.0 -0.0 -0.0 0.0 -0.0 14.3873 31.6206 -6.42188 3.21155 0.145513 0.471231 11.9117 -23.9849 1.75127 -39.1469 0.0 0.0 0.0 0.0 0.0 
1360.69786381 706.925 -1492.35325888 4.64271732472 39.8402243323 2.95448386018 -2.81728 -0.524602 -3.06269 -2.81213 -0.328747 -3.08983 -2.78758 0.478185 -3.07028 -2.80073 -0.0124661 -3.10723 -1.56562 -3.83066 1.22172 -1.52115 -7.87313 0.810584 -0.0 0.0 -0.0 4.09454 0.118034 7.90531 -0.34873 -25.0382 61.635 3.18357 -57.6087 1.75081 19.9129 0.266657 -2.51694 -0.237358 4.1006 0.153568 -0.0 0.0 -0.0 2.40826 2.14871 -4.47089 -16.1927 7.07762 -67.1744 0.572179 15.825 -0.0795245 -48.1153 3.85257 -4.58072 1.77462 -13.7181 -17.0059 0.0 0.0 0.0 -25.5385 1.08928 -7.09499 -5.45597 0.185877 0.816384 3.55996 12.6107 -0.517728 9.55808 -0.0 -0.0 -0.0 0.0 -0.0 14.6077 31.1603 -6.95068 4.67968 0.2208 0.683837 11.2388 -25.4758 1.66915 -40.1155 0.0 0.0 0.0 0.0 0.0 
1351.85236632 711.285 -1505.64163938 4.85699181488 39.8869780364 2.80548687078 -2.76307 -0.44412 -3.00063 -2.7581 -0.252372 -3.02278 -2.73848 0.532231 -2.98627 -2.75092 0.054152 -3.03281 -2.52287 -4.56447 0.96489 -2.47772 -9.02812 0.378478 -0.0 0.0 -0.0 4.03892 0.900153 7.83508 -0.513583 -23.3273 63.1814 3.05676 -56.5474 1.64437 22.607 0.23513 -2.85959 0.061781 0.89419 0.787984 -0.0 0.0 -0.0 2.42208 2.14696 -4.49817 -15.8022 6.4726 -66.8957 0.649516 17.8357 -0.10192 -47.2943 3.75814 -4.53396 1.74927 -10.1761 -15.6185 0.0 0.0 0.0 -24.3703 -0.799345 -7.60992 -9.67968 0.275917 1.45814 -2.00221 8.77429 0.294347 15.9958 -0.0 -0.0 -0.0 0.0 -0.0 14.4915 30.2275 -7.59354 2.70549 0.12083 0.397517 16.1587 -26.0492 2.36703 -40.2067 0.0 0.0 0.0 0.0 0.0 
1327.55460505 716.444 -1549.88829198 5.86525625901 41.0776115695 1.78304416336 -2.70811 -0.297798 -3.01235 -2.70307 -0.1056 -3.02518 -2.69161 0.672471 -2.95145 -2.70371 0.198128 -3.02054 0.0400418 -6.66833 -1.2257 0.120661 -10.881 -2.01637 -0.0 0.0 -0.0 3.80243 -0.153901 7.32518 -4.68915 -21.4948 64.0548 2.73494 -53.5588 1.38048 23.4363 0.222187 -2.96472 -0.133133 5.45142 1.40559 -0.0 0.0 -0.0 3.01285 3.45097 -5.56593 -13.1479 7.58916 -66.4781 0.597297 16.4828 -0.086513 -50.1877 4.0938 -4.69269 1.13867 -11.1786 -11.9517 0.0 0.0 0.0 -19.9198 -6.16803 -5.84182 -21.9455 0.267453 3.33653 -18.0269 19.0512 2.75238 21.1863 -0.0 -0.0 -0.0 0.0 -0.0 15.0921 29.7231 -10.0689 -5.05567 -0.174893 -0.755933 29.5451 -23.2053 4.01398 -40.1437 0.0 0.0 0.0 0.0 0.0 
1320.67353869 717.462 -1558.45914478 5.59315479689 42.9705816404 1.54196573035 -2.78461 -0.426852 -2.93128 -2.77987 -0.239545 -2.95248 -2.7615 0.527741 -2.91482 -2.77335 0.0609866 -2.96155 -3.15309 -6.62715 -0.751176 -3.1019 -11.4747 -1.75224 -0.0 0.0 -0.0 3.69682 2.18189 7.24365 -5.13655 -22.7728 64.3844 2.69748 -53.1808 1.35042 20.2741 0.263366 -2.56296 -0.299164 5.26768 0.239938 -0.0 0.0 -0.0 3.31488 3.35816 -6.17262 -11.6373 7.7254 -65.9112 0.62634 17.2377 -0.0949367 -50.1653 4.09117 -4.69152 0.715232 -12.8584 -9.83692 0.0 0.0 0.0 -17.055 -8.15666 -6.59215 -27.3359 0.136852 4.15315 -18.4221 18.3247 2.80705 23.2114 -0.0 -0.0 -0.0 0.0 -0.0 14.4657 27.2981 -9.22138 -5.01554 -0.173768 -0.749877 29.692 -23.3659 4.0343 -40.2148 0.0 0.0 0.0 0.0 0.0 
1307.7295088 727.024 -1578.98090459 5.53414989395 44.9461119397 1.15068986679 -2.53431 -0.407856 -2.86386 -2.52977 -0.224873 -2.88398 -2.51303 0.51195 -2.84711 -2.52433 0.0560739 -2.89219 -5.17827 -5.96832 0.113961 -5.15342 -11.0698 -0.93196 -0.0 0.0 -0.0 3.77562 2.45811 7.40662 -7.46934 -24.398 64.3978 2.28271 -48.5056 1.02853 15.7983 0.283642 -1.99178 -0.454712 5.70771 -0.592417 -0.0 0.0 -0.0 3.97563 4.88711 -7.39605 -7.72165 8.83658 -64.7305 0.694737 18.9911 -0.116205 -49.5543 4.01965 -4.65939 0.530923 -13.2492 -8.80807 0.0 0.0 0.0 -8.73796 -10.5141 -8.56374 -39.4785 -0.433925 5.92515 -21.9837 15.6291 3.33093 25.2909 -0.0 -0.0 -0.0 0.0 -0.0 13.0958 28.3964 -9.45881 -5.18996 -0.178625 -0.776204 32.2146 -21.8768 4.28474 -40.1702 0.0 0.0 0.0 0.0 0.0 
1290.4650057 732.025 -1602.53718659 4.87013202456 46.6491476912 0.989889420339 -2.3828 -0.351608 -2.6545 -2.3789 -0.182044 -2.67148 -2.36596 0.492858 -2.63196 -2.37562 0.0711603 -2.67673 -6.04141 -5.83873 0.338456 -6.02668 -11.044 -0.7581 -0.0 0.0 -0.0 4.04272 2.84992 7.92945 -8.89554 -25.2391 64.9588 1.72883 -40.5735 0.6391 13.2533 0.275262 -1.66686 -0.65185 7.45295 -1.12973 -0.0 0.0 -0.0 4.14617 7.372 -7.58596 -3.20824 9.93046 -64.4802 0.789248 21.3539 -0.148804 -49.2638 3.98576 -4.64385 0.322555 -13.7933 -7.69513 0.0 0.0 0.0 -0.0759236 -11.4248 -8.51524 -44.3718 -0.768059 6.59916 -23.8223 14.8073 3.60408 26.0575 -0.0 -0.0 -0.0 0.0 -0.0 11.6675 27.9759 -9.3547 -5.39624 -0.184265 -0.807359 31.746 -22.001 4.23601 -40.2347 0.0 0.0 0.0 0.0 0.0 
